<?xml version="1.0" encoding="UTF-8"?>
<!DOCTYPE svg PUBLIC "-//W3C//DTD SVG 1.1//EN" "http://www.w3.org/Graphics/SVG/1.1/DTD/svg11.dtd">
<!-- Creator: CorelDRAW X7 -->
<svg xmlns="http://www.w3.org/2000/svg" xml:space="preserve" width="100%" height="100%" version="1.1" style="shape-rendering:geometricPrecision; text-rendering:geometricPrecision; image-rendering:optimizeQuality; fill-rule:evenodd; clip-rule:evenodd"
viewBox="0 0 28507 17600"
 xmlns:xlink="http://www.w3.org/1999/xlink">
 <defs>
  <style type="text/css">
   <![CDATA[
    .fil0 {fill:#f8f9fa}
   ]]>
  </style>
 </defs>
 <g id="Layer_x0020_1">
  <metadata id="CorelCorpID_0Corel-Layer"/>
  <path class="fil0" d="M4436 1007l21355 0c868,0 1577,710 1577,1577l0 13438c0,868 -709,1578 -1577,1578l-21355 0c-868,0 -1578,-710 -1578,-1578l0 -1280 2435 0c646,0 1175,-529 1175,-1175l0 -243c0,-647 -529,-1176 -1175,-1176l-2435 0 0 -1548 2435 0c646,0 1175,-529 1175,-1175l0 -243c0,-647 -529,-1176 -1175,-1176l-2435 0 0 -1555 2435 0c646,0 1175,-529 1175,-1175l0 -243c0,-646 -529,-1175 -1175,-1175l-2435 0 0 -1274c0,-867 710,-1577 1578,-1577zm8193 11900l0 874 -4696 0 0 -736c707,-1320 1581,-2577 2624,-3776 583,-675 876,-1380 876,-2117 0,-522 -140,-921 -414,-1196 -185,-185 -431,-277 -737,-277 -246,0 -491,124 -737,369 -277,275 -414,843 -414,1703l-1014 0c32,-1106 291,-1903 782,-2394 369,-367 860,-552 1473,-552 584,0 1075,198 1473,597 431,430 647,1029 647,1797 0,890 -415,1809 -1244,2762 -889,1011 -1626,1993 -2209,2946l3590 0zm2210 -1795c-32,674 108,1165 414,1473 214,214 507,322 874,322 307,0 599,-139 874,-414 277,-277 415,-737 415,-1381 0,-491 -169,-906 -505,-1243 -246,-246 -615,-354 -1106,-323l0 -783c491,-30 860,-169 1106,-415 246,-245 367,-613 367,-1104 0,-614 -137,-1058 -414,-1335 -185,-183 -415,-275 -690,-275 -276,0 -506,92 -691,275 -306,308 -475,768 -507,1381l-1011 0c29,-798 290,-1442 782,-1933 369,-367 844,-552 1427,-552 613,0 1104,185 1474,552 428,430 644,998 644,1703 0,644 -169,1135 -507,1473 -306,306 -599,507 -874,599 399,122 705,291 919,507 430,428 645,950 645,1565 0,798 -246,1442 -737,1933 -428,430 -966,644 -1611,644 -705,0 -1257,-198 -1657,-599 -460,-460 -690,-1151 -690,-2070l1059 0zm7780 2669l0 -1059 0 -1058 -3084 0 0 -874 3084 -5985 1059 0 0 5985 966 0 0 874 -966 0 0 2117 -1059 0zm0 -2991l0 -4052 -2072 4052 2072 0zm-17044 -10790l21355 0c867,0 1577,710 1577,1577l0 13439c0,511 -247,968 -627,1256l0 -13946c0,-975 -798,-1773 -1773,-1773l-21729 0c290,-338 719,-553 1197,-553zm-4954 4470l4475 0c341,0 621,279 621,621l0 128c0,341 -280,620 -621,620l-4475 0c-342,0 -621,-279 -621,-620l0 -128c0,-342 279,-621 621,-621zm0 4149l4475 0c341,0 621,279 621,620l0 128c0,342 -280,621 -621,621l-4475 0c-342,0 -621,-279 -621,-621l0 -128c0,-341 279,-620 621,-620zm0 4142l4475 0c341,0 621,279 621,620l0 128c0,342 -280,621 -621,621l-4475 0c-342,0 -621,-279 -621,-621l0 -128c0,-341 279,-620 621,-620z"/>
 </g>
</svg>
